<svg xmlns="http://www.w3.org/2000/svg" xmlns:xlink="http://www.w3.org/1999/xlink"><defs>
<clipPath id="clip0_131_2514">
<rect width="22" height="22" fill="white"/>
</clipPath>
</defs><symbol id="cross" viewBox="0 0 22 22"><g fill="none">
<path d="M2 2L11 11M20 20L11 11M11 11L20 2L2 20" stroke="#2D383F" stroke-width="2"/>
</g></symbol><symbol id="icon-close" viewBox="0 0 20 20"><g fill="none"><path d="M.293 18.291a1 1 0 101.414 1.414L10 11.413l8.292 8.292a1 1 0 101.414-1.414l-8.292-8.292 8.292-8.292A1 1 0 1018.291.293L9.999 8.585 1.707.293A1 1 0 10.293 1.707L8.585 10 .293 18.291z"/></g></symbol><symbol id="level" viewBox="0 0 22 22"><g fill="none" stroke="currentColor">
<path d="M20 21H16.4V1H20V21Z" stroke-miterlimit="16" stroke-linecap="round"/>
<path d="M12.8 21V6.45455H9.2L9.2 21H12.8Z" stroke-miterlimit="16" stroke-linecap="round"/>
<path d="M5.6 21V11.9091H2V21H5.6Z" stroke-miterlimit="16" stroke-linecap="round"/>
</g></symbol><symbol id="mail" viewBox="0 0 22 22"><g fill="none">
<path d="M21 5.55556V16.4444C21 17.3036 20.3604 18 19.5714 18H2.42857C1.63959 18 1 17.3036 1 16.4444V5.55556M21 5.55556C21 4.69645 20.3604 4 19.5714 4H2.42857C1.63959 4 1 4.69645 1 5.55556M21 5.55556L12.8594 13.1534C11.7895 14.152 10.2106 14.152 9.14062 13.1534L1 5.55556" stroke="#2D383F" stroke-linecap="round" stroke-linejoin="round"/>
</g></symbol><symbol id="menu" viewBox="0 0 26 26"><g fill="currentColor">
<path d="M0 3.54541H26V5.71534H0V3.54541Z"/>
<path d="M0 20.2846H26V22.4545H0V20.2846Z"/>
<path d="M0 11.915H16.64V14.0849H0V11.915Z"/>
</g></symbol><symbol id="moon" viewBox="0 0 22 22"><g fill="currentColor">
<path d="M20.5272 12.382C20.3228 12.3307 20.1183 12.382 19.9394 12.5103C19.2748 13.0745 18.5081 13.5362 17.6646 13.844C16.8723 14.1518 16.0033 14.3057 15.0831 14.3057C13.0128 14.3057 11.1215 13.4593 9.76681 12.0999C8.41217 10.7405 7.56872 8.84251 7.56872 6.76497C7.56872 5.89291 7.72207 5.0465 7.97767 4.27704C8.25882 3.45628 8.66777 2.71247 9.20451 2.07125C9.43454 1.78912 9.38343 1.37874 9.10227 1.1479C8.92336 1.01966 8.71888 0.96836 8.51441 1.01966C6.34188 1.60958 4.4505 2.91766 3.09586 4.66177C1.79234 6.38024 1 8.50908 1 10.8431C1 13.6388 2.12461 16.178 3.96487 18.0247C5.80513 19.8715 8.3355 21 11.1215 21C13.4729 21 15.6454 20.1792 17.3835 18.8199C19.147 17.4348 20.425 15.4599 20.9618 13.2028C21.0895 12.8181 20.8851 12.459 20.5272 12.382ZM16.6167 17.7426C15.1342 18.9225 13.2429 19.6406 11.1726 19.6406C8.74444 19.6406 6.54635 18.6403 4.96168 17.0501C3.37701 15.4599 2.3802 13.2541 2.3802 10.8175C2.3802 8.79122 3.04474 6.94451 4.1949 5.45688C4.98724 4.43094 5.98405 3.58453 7.13421 2.99461C7.00642 3.27674 6.87862 3.55888 6.77638 3.86666C6.44411 4.79002 6.29076 5.76467 6.29076 6.79062C6.29076 9.22724 7.28757 11.4587 8.87224 13.0489C10.4569 14.6391 12.6806 15.6394 15.1087 15.6394C16.1822 15.6394 17.2045 15.4599 18.1502 15.1008C18.4825 14.9726 18.8148 14.8443 19.1215 14.6904C18.5081 15.8703 17.6646 16.9219 16.6167 17.7426Z"/>
</g></symbol><symbol id="phone" viewBox="0 0 22 22"><g fill="none">
<g clip-path="url(#clip0_131_2514)">
<path d="M19.3236 20.0443C19.0034 20.6753 18.3438 21.0672 17.6426 20.9904C17.3412 20.9575 17.0402 20.9171 16.7396 20.8693C12.8229 20.2465 9.20304 18.3949 6.39895 15.5797C3.59486 12.7646 1.75046 9.1305 1.1301 5.19831C1.08254 4.89683 1.04236 4.59477 1.00952 4.29242C0.933062 3.58844 1.32346 2.92622 1.95195 2.60473L4.70244 1.19777C5.76693 0.653244 7.05498 1.28842 7.42933 2.42743C7.65638 3.11826 7.92452 3.79805 8.23342 4.4631C8.38821 4.79636 8.5524 5.12412 8.72567 5.44606C9.13588 6.20824 8.85917 7.18583 8.0736 7.54431C6.93267 8.06496 6.66094 9.56938 7.54713 10.4591L11.4995 14.427C12.3857 15.3167 13.8842 15.0439 14.4028 13.8985C14.7796 13.0663 15.8009 12.765 16.6118 13.1807C16.8084 13.2814 17.0071 13.3788 17.2078 13.4728C17.9681 13.8287 18.7478 14.1308 19.5413 14.3784C20.6964 14.7389 21.3521 16.0475 20.8029 17.1296L19.3236 20.0443Z" stroke="#2D383F" stroke-linecap="round" stroke-linejoin="round"/>
</g>

</g></symbol><symbol id="pin_stroke" viewBox="0 0 22 22"><g fill="none">
<path d="M18.5 8.14732C18.5 4.19996 15.1421 1 11 1C6.85786 1 3.5 4.19996 3.5 8.14732V8.57782C3.5 10.1572 4.01784 11.6971 4.98114 12.9823L10.9852 20.9927C10.9924 21.0024 11.0076 21.0024 11.0148 20.9927L17.0189 12.9823C17.9822 11.6971 18.5 10.1572 18.5 8.57782V8.14732Z" stroke="#2D383F" stroke-linecap="round" stroke-linejoin="round"/>
<path d="M9.53407 5.28903C10.4604 4.86389 11.5396 4.86389 12.4659 5.28903C13.3923 5.71417 14.0651 6.51818 14.2939 7.47347C14.5227 8.42875 14.2826 9.43134 13.6415 10.1974C13.0004 10.9635 12.0282 11.4097 11 11.4097C9.9718 11.4097 8.99955 10.9635 8.35848 10.1974C7.7174 9.43134 7.47728 8.42875 7.70608 7.47347C7.93487 6.51818 8.60769 5.71417 9.53407 5.28903Z" stroke="#2D383F" stroke-linecap="round" stroke-linejoin="round"/>
</g></symbol><symbol id="play" viewBox="0 0 12 22">
<path d="M12 11L0 0V22L12 11Z"/>
</symbol><symbol id="sun" viewBox="0 0 22 22"><g fill="none">
<path d="M14.545 7.45505C13.6455 6.55558 12.3757 5.97357 11 5.97357C9.62433 5.97357 8.35449 6.52912 7.45502 7.45505C6.55555 8.35451 5.97354 9.62435 5.97354 11C5.97354 12.3757 6.55555 13.6455 7.45502 14.545C8.35449 15.4444 9.62433 16.0265 11 16.0265C12.3757 16.0265 13.6455 15.4709 14.545 14.545C15.4444 13.6455 16.0265 12.3757 16.0265 11C16.0265 9.62435 15.4709 8.35451 14.545 7.45505ZM13.5926 13.5926C12.9312 14.254 12.0053 14.6508 11 14.6508C9.9947 14.6508 9.06878 14.254 8.4074 13.5926C7.74603 12.9312 7.3492 12.0053 7.3492 11C7.3492 9.99472 7.74603 9.0688 8.4074 8.40742C9.06878 7.74605 9.9947 7.34923 11 7.34923C12.0053 7.34923 12.9312 7.74605 13.5926 8.40742C14.254 9.0688 14.6508 9.99472 14.6508 11C14.6508 12.0053 14.254 12.9312 13.5926 13.5926Z" fill="#2D383F"/>
<path d="M20.3122 10.3122H18.2751C17.9048 10.3122 17.5873 10.6297 17.5873 11C17.5873 11.3704 17.9048 11.6879 18.2751 11.6879H20.3122C20.6825 11.6879 21 11.3704 21 11C21 10.6297 20.6825 10.3122 20.3122 10.3122Z" fill="#2D383F"/>
<path d="M11 17.5873C10.6296 17.5873 10.3122 17.9048 10.3122 18.2751V20.3122C10.3122 20.6825 10.6296 21 11 21C11.3704 21 11.6878 20.6825 11.6878 20.3122V18.2751C11.6878 17.9048 11.3704 17.5873 11 17.5873Z" fill="#2D383F"/>
<path d="M18.0635 17.1111L16.6085 15.656C16.3704 15.3915 15.9207 15.3915 15.6561 15.656C15.3916 15.9206 15.3916 16.3439 15.6561 16.6084L17.1111 18.0634C17.3757 18.328 17.799 18.328 18.0635 18.0634C18.3281 17.7989 18.3281 17.3756 18.0635 17.1111Z" fill="#2D383F"/>
<path d="M11 1C10.6296 1 10.3122 1.31746 10.3122 1.68783V3.72486C10.3122 4.09523 10.6296 4.41269 11 4.41269C11.3704 4.41269 11.6878 4.09523 11.6878 3.72486V1.68783C11.6878 1.31746 11.3704 1 11 1Z" fill="#2D383F"/>
<path d="M18.0899 3.93653C17.8254 3.67198 17.4021 3.67198 17.1376 3.93653L15.6825 5.39155C15.418 5.6561 15.418 6.07938 15.6825 6.34393C15.9206 6.60848 16.3704 6.60848 16.6349 6.34393L18.0899 4.88891C18.3545 4.62436 18.3545 4.20108 18.0899 3.93653Z" fill="#2D383F"/>
<path d="M3.72487 10.3122H1.68783C1.31746 10.3122 1 10.6297 1 11C1 11.3704 1.29101 11.6879 1.68783 11.6879H3.72487C4.09524 11.6879 4.4127 11.3704 4.4127 11C4.4127 10.6297 4.09524 10.3122 3.72487 10.3122Z" fill="#2D383F"/>
<path d="M6.31746 15.656C6.07937 15.3915 5.62963 15.3915 5.36508 15.656L3.91005 17.1111C3.6455 17.3756 3.6455 17.7989 3.91005 18.0634C4.1746 18.328 4.59788 18.328 4.86243 18.0634L6.31746 16.6084C6.58201 16.3439 6.58201 15.9206 6.31746 15.656Z" fill="#2D383F"/>
<path d="M6.31746 5.39155L4.86243 3.93653C4.59788 3.67198 4.1746 3.67198 3.91005 3.93653C3.6455 4.20108 3.6455 4.62436 3.91005 4.88891L5.36508 6.34393C5.62963 6.60848 6.05291 6.60848 6.31746 6.34393C6.58201 6.07938 6.58201 5.6561 6.31746 5.39155Z" fill="#2D383F"/>
</g></symbol></svg>