<svg xmlns="http://www.w3.org/2000/svg" xmlns:xlink="http://www.w3.org/1999/xlink"><defs><clipPath id="clip0_131_2514"><rect width="22" height="22" fill="white"/></clipPath></defs><symbol id="arrow-btn" viewBox="0 0 14 9"><path d="M0.646446 4.85355C0.451184 4.65829 0.451184 4.34171 0.646446 4.14645L3.82843 0.964466C4.02369 0.769204 4.34027 0.769204 4.53553 0.964466C4.7308 1.15973 4.7308 1.47631 4.53553 1.67157L1.70711 4.5L4.53553 7.32843C4.7308 7.52369 4.7308 7.84027 4.53553 8.03553C4.34027 8.2308 4.02369 8.2308 3.82843 8.03553L0.646446 4.85355ZM14 5H1V4H14V5Z"/></symbol><symbol id="arrow-right" viewBox="0 0 9 14"><path d="M1.5 13L7.5 7L1.5 1" stroke-width="2"/></symbol><symbol id="cross" viewBox="0 0 22 22"><g fill="none"><path d="M2 2L11 11M20 20L11 11M11 11L20 2L2 20" stroke="#2D383F" stroke-width="2"/></g></symbol><symbol id="icon-close" viewBox="0 0 20 20"><g fill="none"><path d="M.293 18.291a1 1 0 101.414 1.414L10 11.413l8.292 8.292a1 1 0 101.414-1.414l-8.292-8.292 8.292-8.292A1 1 0 1018.291.293L9.999 8.585 1.707.293A1 1 0 10.293 1.707L8.585 10 .293 18.291z"/></g></symbol><symbol id="level" viewBox="0 0 22 22"><g fill="none" stroke="currentColor"><path d="M20 21H16.4V1H20V21Z" stroke-miterlimit="16" stroke-linecap="round"/><path d="M12.8 21V6.45455H9.2L9.2 21H12.8Z" stroke-miterlimit="16" stroke-linecap="round"/><path d="M5.6 21V11.9091H2V21H5.6Z" stroke-miterlimit="16" stroke-linecap="round"/></g></symbol><symbol id="mail" viewBox="0 0 22 22"><g fill="none"><path d="M21 5.55556V16.4444C21 17.3036 20.3604 18 19.5714 18H2.42857C1.63959 18 1 17.3036 1 16.4444V5.55556M21 5.55556C21 4.69645 20.3604 4 19.5714 4H2.42857C1.63959 4 1 4.69645 1 5.55556M21 5.55556L12.8594 13.1534C11.7895 14.152 10.2106 14.152 9.14062 13.1534L1 5.55556" stroke="#2D383F" stroke-linecap="round" stroke-linejoin="round"/></g></symbol><symbol id="menu" viewBox="0 0 26 26"><g fill="currentColor"><path d="M0 3.54541H26V5.71534H0V3.54541Z"/><path d="M0 20.2846H26V22.4545H0V20.2846Z"/><path d="M0 11.915H16.64V14.0849H0V11.915Z"/></g></symbol><symbol id="moon" viewBox="0 0 16 16"><path d="M15.6218 9.10563C15.4582 9.06459 15.2946 9.10563 15.1515 9.20822C14.6199 9.65964 14.0065 10.029 13.3317 10.2752C12.6978 10.5214 12.0026 10.6445 11.2665 10.6445C9.61027 10.6445 8.09716 9.96742 7.01345 8.87992C5.92974 7.79241 5.25498 6.27401 5.25498 4.61197C5.25498 3.91433 5.37766 3.2372 5.58213 2.62163C5.80706 1.96503 6.13421 1.36998 6.56361 0.857004C6.74763 0.631295 6.70674 0.302991 6.48182 0.118321C6.33869 0.0157259 6.17511 -0.0253121 6.01153 0.0157259C4.2735 0.487662 2.7604 1.53413 1.67668 2.92942C0.633869 4.30419 0 6.00726 0 7.87449C0 10.1111 0.899685 12.1424 2.3719 13.6198C3.84411 15.0972 5.8684 16 8.09716 16C9.97832 16 11.7163 15.3434 13.1068 14.2559C14.5176 13.1479 15.54 11.5679 15.9694 9.76223C16.0716 9.45445 15.9081 9.16718 15.6218 9.10563ZM12.4933 13.3941C11.3074 14.338 9.79429 14.9125 8.13806 14.9125C6.19556 14.9125 4.43708 14.1123 3.16934 12.8401C1.90161 11.5679 1.10416 9.80327 1.10416 7.85397C1.10416 6.23297 1.63579 4.75561 2.55592 3.56551C3.18979 2.74475 3.98724 2.06762 4.90737 1.59569C4.80513 1.82139 4.7029 2.0471 4.62111 2.29333C4.35529 3.03201 4.23261 3.81173 4.23261 4.63249C4.23261 6.58179 5.03006 8.36695 6.29779 9.63912C7.56553 10.9113 9.34445 11.7115 11.287 11.7115C12.1457 11.7115 12.9636 11.5679 13.7202 11.2806C13.986 11.178 14.2518 11.0754 14.4972 10.9523C14.0065 11.8962 13.3317 12.7375 12.4933 13.3941Z"/></symbol><symbol id="phone" viewBox="0 0 22 22"><g fill="none"><g clip-path="url(#clip0_131_2514)"><path d="M19.3236 20.0443C19.0034 20.6753 18.3438 21.0672 17.6426 20.9904C17.3412 20.9575 17.0402 20.9171 16.7396 20.8693C12.8229 20.2465 9.20304 18.3949 6.39895 15.5797C3.59486 12.7646 1.75046 9.1305 1.1301 5.19831C1.08254 4.89683 1.04236 4.59477 1.00952 4.29242C0.933062 3.58844 1.32346 2.92622 1.95195 2.60473L4.70244 1.19777C5.76693 0.653244 7.05498 1.28842 7.42933 2.42743C7.65638 3.11826 7.92452 3.79805 8.23342 4.4631C8.38821 4.79636 8.5524 5.12412 8.72567 5.44606C9.13588 6.20824 8.85917 7.18583 8.0736 7.54431C6.93267 8.06496 6.66094 9.56938 7.54713 10.4591L11.4995 14.427C12.3857 15.3167 13.8842 15.0439 14.4028 13.8985C14.7796 13.0663 15.8009 12.765 16.6118 13.1807C16.8084 13.2814 17.0071 13.3788 17.2078 13.4728C17.9681 13.8287 18.7478 14.1308 19.5413 14.3784C20.6964 14.7389 21.3521 16.0475 20.8029 17.1296L19.3236 20.0443Z" stroke="#2D383F" stroke-linecap="round" stroke-linejoin="round"/></g></g></symbol><symbol id="pin_stroke" viewBox="0 0 9 12"><path d="M4.49981 0C2.01874 0 0 1.98191 0 4.41796C0 5.05338 0.132472 5.66006 0.39354 6.2213C1.51862 8.63833 3.67571 11.1902 4.31017 11.9146C4.35771 11.9688 4.42701 12 4.49994 12C4.57287 12 4.64217 11.9688 4.6897 11.9146C5.32392 11.1903 7.48101 8.63857 8.60646 6.2213C8.86765 5.66006 9 5.05338 9 4.41796C8.99975 1.98191 6.98101 0 4.49981 0ZM4.49981 6.71267C3.21099 6.71267 2.16234 5.68315 2.16234 4.41784C2.16234 3.15241 3.21099 2.12289 4.49981 2.12289C5.78864 2.12289 6.83728 3.15241 6.83728 4.41784C6.83741 5.68315 5.78876 6.71267 4.49981 6.71267Z"/></symbol><symbol id="play" viewBox="0 0 12 22"><path d="M12 11L0 0V22L12 11Z"/></symbol><symbol id="star-marked" viewBox="0 0 16 16"><path d="M7.63441 11.6911L12.3525 14.3L11.1042 9.37971L15.2688 6.0708L9.77893 5.63889L7.63441 1L5.48992 5.63889L0 6.0708L4.16458 9.37971L2.91634 14.3L7.63441 11.6911Z"/></symbol><symbol id="star" viewBox="0 0 16 16"><path fill-rule="evenodd" clip-rule="evenodd" d="M7.63441 10.5484L10.8153 12.3073L9.97596 8.99895L12.6574 6.86844L9.11688 6.58989L7.63441 3.38311L6.15197 6.58989L2.61141 6.86844L5.29286 8.99895L4.45356 12.3073L7.63441 10.5484ZM2.91634 14.3L4.16458 9.37971L0 6.0708L5.48992 5.63889L7.63441 1L9.77893 5.63889L15.2688 6.0708L11.1042 9.37971L12.3525 14.3L7.63441 11.6911L2.91634 14.3Z"/></symbol><symbol id="sun" viewBox="0 0 20 20"><path d="M13.545 6.45505C12.6455 5.55558 11.3757 4.97357 9.99999 4.97357C8.62433 4.97357 7.35449 5.52912 6.45502 6.45505C5.55555 7.35451 4.97354 8.62435 4.97354 10C4.97354 11.3757 5.55555 12.6455 6.45502 13.545C7.35449 14.4444 8.62433 15.0265 9.99999 15.0265C11.3757 15.0265 12.6455 14.4709 13.545 13.545C14.4444 12.6455 15.0265 11.3757 15.0265 10C15.0265 8.62435 14.4709 7.35451 13.545 6.45505ZM12.5926 12.5926C11.9312 13.254 11.0053 13.6508 9.99999 13.6508C8.9947 13.6508 8.06878 13.254 7.4074 12.5926C6.74603 11.9312 6.3492 11.0053 6.3492 10C6.3492 8.99472 6.74603 8.0688 7.4074 7.40742C8.06878 6.74605 8.9947 6.34922 9.99999 6.34922C11.0053 6.34922 11.9312 6.74605 12.5926 7.40742C13.254 8.0688 13.6508 8.99472 13.6508 10C13.6508 11.0053 13.254 11.9312 12.5926 12.5926Z"/><path d="M19.3122 9.3122H17.2751C16.9048 9.3122 16.5873 9.62966 16.5873 10C16.5873 10.3704 16.9048 10.6879 17.2751 10.6879H19.3122C19.6825 10.6879 20 10.3704 20 10C20 9.62966 19.6825 9.3122 19.3122 9.3122Z"/><path d="M9.99999 16.5873C9.62962 16.5873 9.31216 16.9048 9.31216 17.2751V19.3122C9.31216 19.6825 9.62962 20 9.99999 20C10.3704 20 10.6878 19.6825 10.6878 19.3122V17.2751C10.6878 16.9048 10.3704 16.5873 9.99999 16.5873Z"/><path d="M17.0635 16.1111L15.6085 14.656C15.3704 14.3915 14.9207 14.3915 14.6561 14.656C14.3916 14.9206 14.3916 15.3439 14.6561 15.6084L16.1111 17.0634C16.3757 17.328 16.799 17.328 17.0635 17.0634C17.3281 16.7989 17.3281 16.3756 17.0635 16.1111Z"/><path d="M9.99999 0C9.62962 0 9.31216 0.317459 9.31216 0.687829V2.72486C9.31216 3.09523 9.62962 3.41269 9.99999 3.41269C10.3704 3.41269 10.6878 3.09523 10.6878 2.72486V0.687829C10.6878 0.317459 10.3704 0 9.99999 0Z"/><path d="M17.0899 2.93653C16.8254 2.67198 16.4021 2.67198 16.1376 2.93653L14.6825 4.39155C14.418 4.6561 14.418 5.07938 14.6825 5.34393C14.9206 5.60848 15.3704 5.60848 15.6349 5.34393L17.0899 3.88891C17.3545 3.62436 17.3545 3.20108 17.0899 2.93653Z"/><path d="M2.72487 9.3122H0.687831C0.31746 9.3122 0 9.62966 0 10C0 10.3704 0.291005 10.6879 0.687831 10.6879H2.72487C3.09524 10.6879 3.4127 10.3704 3.4127 10C3.4127 9.62966 3.09524 9.3122 2.72487 9.3122Z"/><path d="M5.31746 14.656C5.07937 14.3915 4.62963 14.3915 4.36508 14.656L2.91005 16.1111C2.6455 16.3756 2.6455 16.7989 2.91005 17.0634C3.1746 17.328 3.59788 17.328 3.86243 17.0634L5.31746 15.6084C5.58201 15.3439 5.58201 14.9206 5.31746 14.656Z"/><path d="M5.31746 4.39155L3.86243 2.93653C3.59788 2.67198 3.1746 2.67198 2.91005 2.93653C2.6455 3.20108 2.6455 3.62436 2.91005 3.88891L4.36508 5.34393C4.62963 5.60848 5.05291 5.60848 5.31746 5.34393C5.58201 5.07938 5.58201 4.6561 5.31746 4.39155Z"/></symbol></svg>